<svg id="Capa_1" enable-background="new 0 0 512 512" height="512" viewBox="0 0 512 512" width="512" xmlns="http://www.w3.org/2000/svg"><g><g><path d="m113.307 0h-103.005c-5.69 0-10.302 4.612-10.302 10.302v103.005c0 5.69 4.612 10.302 10.302 10.302h19.45c5.69 0 10.302-4.612 10.302-10.302v-68.103c0-2.845 2.306-5.151 5.151-5.151h68.102c5.69 0 10.302-4.612 10.302-10.302v-19.45c0-5.689-4.613-10.301-10.302-10.301z" fill="#e5646e"/></g><g><path d="m409.858 429.858h-288.258c-11.046 0-25.2-8.954-25.2-20l3.24-304.978c0-11.046 11.589-22.738 22.635-22.738h287.583c11.046 0 20 8.954 20 20v307.716c0 11.046-8.954 20-20 20z" fill="#eceaec"/></g><g><path d="m107.361 409.254v-306.508c0-11.379 9.225-20.604 20.604-20.604h-25.219c-11.379 0-20.604 9.225-20.604 20.604v306.509c0 11.379 9.225 20.604 20.604 20.604h25.219c-11.379-.001-20.604-9.226-20.604-20.605z" fill="#dad8db"/></g><g><path d="m203.329 209.945h-54.009c-5.523 0-16.2-4.863-16.2-10.385l.36-59.502c0-5.523 12.117-18.321 17.64-18.321h52.209c5.523 0 10 4.477 10 10v68.208c0 5.523-4.477 10-10 10z" fill="#61a2f9"/></g><g><path d="m144.901 199.644v-67.604c0-5.69 4.612-10.302 10.302-10.302h-19.779c-5.69 0-10.302 4.612-10.302 10.302v67.604c0 5.689 4.612 10.302 10.302 10.302h19.779c-5.69-.001-10.302-4.613-10.302-10.302z" fill="#4591e5"/></g><g><path d="m172.906 173.567h-7.362c-4.268 0-7.726-3.459-7.726-7.726s3.459-7.726 7.726-7.726h7.362c4.268 0 7.726 3.459 7.726 7.726s-3.458 7.726-7.726 7.726z" fill="#eceaec"/></g><g><path d="m376.879 209.945h-54.009c-5.523 0-16.2-4.863-16.2-10.385l.36-59.502c0-5.523 12.117-18.321 17.64-18.321h52.209c5.523 0 10 4.477 10 10v68.208c0 5.523-4.478 10-10 10z" fill="#61a2f9"/></g><g><path d="m318.45 199.644v-67.604c0-5.69 4.612-10.302 10.302-10.302h-19.779c-5.69 0-10.302 4.612-10.302 10.302v67.604c0 5.689 4.612 10.302 10.302 10.302h19.779c-5.69-.001-10.302-4.613-10.302-10.302z" fill="#4591e5"/></g><g><path d="m346.456 173.567h-7.362c-4.268 0-7.726-3.459-7.726-7.726s3.459-7.726 7.726-7.726h7.362c4.268 0 7.726 3.459 7.726 7.726s-3.459 7.726-7.726 7.726z" fill="#eceaec"/></g><g><path d="m256 202.591c-4.268 0-7.726-3.459-7.726-7.726v-29.023c0-4.268 3.459-7.726 7.726-7.726s7.726 3.459 7.726 7.726v29.023c0 4.267-3.458 7.726-7.726 7.726z" fill="#61a2f9"/></g><g><path d="m256 265.818h-42.671c-4.268 0-7.726-3.459-7.726-7.726s3.459-7.726 7.726-7.726h34.945v-25.339c0-4.268 3.459-7.726 7.726-7.726s7.726 3.459 7.726 7.726v33.065c0 4.267-3.458 7.726-7.726 7.726z" fill="#61a2f9"/></g><g><path d="m181.904 265.818h-56.784c-4.268 0-7.726-3.459-7.726-7.726s3.459-7.726 7.726-7.726h56.784c4.268 0 7.726 3.459 7.726 7.726s-3.458 7.726-7.726 7.726z" fill="#61a2f9"/></g><g><path d="m256 140.058c-4.268 0-7.726-3.459-7.726-7.726v-10.595c0-4.268 3.459-7.726 7.726-7.726s7.726 3.459 7.726 7.726v10.595c0 4.268-3.458 7.726-7.726 7.726z" fill="#61a2f9"/></g><g><path d="m342.775 265.818h-52.831c-4.268 0-7.726-3.459-7.726-7.726s3.459-7.726 7.726-7.726h52.831c4.268 0 7.726 3.459 7.726 7.726s-3.459 7.726-7.726 7.726z" fill="#61a2f9"/></g><g><path d="m386.879 265.818h-9.765c-4.268 0-7.726-3.459-7.726-7.726s3.459-7.726 7.726-7.726h9.765c4.268 0 7.726 3.459 7.726 7.726s-3.458 7.726-7.726 7.726z" fill="#61a2f9"/></g><g><path d="m256 397.989c-4.268 0-7.726-3.459-7.726-7.726v-59.287c0-4.268 3.459-7.726 7.726-7.726s7.726 3.459 7.726 7.726v59.287c0 4.267-3.458 7.726-7.726 7.726z" fill="#61a2f9"/></g><g><path d="m256 309.781c-4.268 0-7.726-3.459-7.726-7.726v-14.929c0-4.268 3.459-7.726 7.726-7.726s7.726 3.459 7.726 7.726v14.929c0 4.267-3.458 7.726-7.726 7.726z" fill="#61a2f9"/></g><g><path d="m398.693 0h103.005c5.69 0 10.302 4.612 10.302 10.302v103.005c0 5.69-4.612 10.302-10.302 10.302h-19.45c-5.69 0-10.302-4.612-10.302-10.302v-68.103c0-2.845-2.306-5.151-5.151-5.151h-68.102c-5.69 0-10.302-4.612-10.302-10.302v-19.45c0-5.689 4.613-10.301 10.302-10.301z" fill="#e5646e"/></g><g><path d="m398.693 512h103.005c5.69 0 10.302-4.612 10.302-10.302v-103.005c0-5.69-4.612-10.302-10.302-10.302h-19.45c-5.69 0-10.302 4.612-10.302 10.302v68.102c0 2.845-2.306 5.151-5.151 5.151h-68.102c-5.69 0-10.302 4.612-10.302 10.302v19.45c0 5.69 4.613 10.302 10.302 10.302z" fill="#e5646e"/></g><g><path d="m113.307 512h-103.005c-5.69 0-10.302-4.612-10.302-10.302v-103.005c0-5.69 4.612-10.302 10.302-10.302h19.45c5.69 0 10.302 4.612 10.302 10.302v68.102c0 2.845 2.306 5.151 5.151 5.151h68.102c5.69 0 10.302 4.612 10.302 10.302v19.45c0 5.69-4.613 10.302-10.302 10.302z" fill="#e5646e"/></g><g><path d="m376.879 390.263h-54.009c-5.523 0-16.2-4.863-16.2-10.385l.36-59.502c0-5.523 12.117-18.321 17.64-18.321h52.209c5.523 0 10 4.477 10 10v68.208c0 5.523-4.478 10-10 10z" fill="#61a2f9"/></g><g><path d="m318.45 379.961v-67.604c0-5.69 4.612-10.302 10.302-10.302h-19.779c-5.69 0-10.302 4.612-10.302 10.302v67.604c0 5.689 4.612 10.302 10.302 10.302h19.779c-5.69 0-10.302-4.612-10.302-10.302z" fill="#4591e5"/></g><g><path d="m346.456 353.885h-7.362c-4.268 0-7.726-3.459-7.726-7.726s3.459-7.726 7.726-7.726h7.362c4.268 0 7.726 3.459 7.726 7.726s-3.459 7.726-7.726 7.726z" fill="#eceaec"/></g><g><path d="m203.329 390.263h-54.009c-5.523 0-16.2-4.863-16.2-10.385l.36-59.502c0-5.523 12.117-18.321 17.64-18.321h52.209c5.523 0 10 4.477 10 10v68.208c0 5.523-4.477 10-10 10z" fill="#61a2f9"/></g><g><path d="m144.901 379.961v-67.604c0-5.69 4.612-10.302 10.302-10.302h-19.779c-5.69 0-10.302 4.612-10.302 10.302v67.604c0 5.689 4.612 10.302 10.302 10.302h19.779c-5.69 0-10.302-4.612-10.302-10.302z" fill="#4591e5"/></g><g><path d="m172.906 353.885h-7.362c-4.268 0-7.726-3.459-7.726-7.726s3.459-7.726 7.726-7.726h7.362c4.268 0 7.726 3.459 7.726 7.726s-3.458 7.726-7.726 7.726z" fill="#eceaec"/></g></g></svg>